# xmcd CD database file
#
# Track frame offsets:
#	150
#	67876
#	109814
#	159053
#	192653
#	260802
#
# Disc length: 4453 seconds
#
# Revision: 0
# Processed by: cddbd v1.5.1PL2 Copyright (c) Steve Scherf et al.
# Submitted via: CDex 1.51
#
DISCID=4e116306
DTITLE=Free Zone (Evan Parker, etc) - Appleby 2002 [CD2]
DYEAR=2003
DGENRE=Jazz
TTITLE0=Pin Drop
TTITLE1=Sense
TTITLE2=Phantoms
TTITLE3=Pica Pica
TTITLE4=Mgt4all
TTITLE5=Morsman Octet
EXTD=YEAR: 2003
EXTT0=
EXTT1=
EXTT2=
EXTT3=
EXTT4=
EXTT5=
PLAYORDER=
